# xmcd
#
# Track frame offsets: 
#        150
#        16192
#        30734
#        41563
#        55546
#        66219
#        82039
#        92474
#        109834
#        126388
#        139220
#        151056
#        159754
#        171032
#        181765
#        193450
#        202857
#        214832
#        227298
#        236816
#        250076
#        259396
#
# Disc length: 3615 seconds
#
# Revision: 1
# Processed by: cddbd v1.5.2PL0 Copyright (c) Steve Scherf et al.
# Submitted via: ExactAudioCopy v0.99pb5
#
DISCID=220e1d16
DTITLE=Various Artist - Echte Volksmusik aus den Bergen - Folge 4 - CD1
DYEAR=2000
DGENRE=Country
TTITLE0=Moarhuber Ziachmusi - Kerzenlicht Landler
TTITLE1=Vilsleit'nmusi - Laterndl Boarisch
TTITLE2=Tiroler Kirchtagmusig - Sunnjoch Marsch
TTITLE3=Lindmair Dreig'sang - Berg und Tal werd'n schö staad aper
TTITLE4=Die Unterlandler - Alpler Marsch
TTITLE5=Altmühldorfer Muskianten - Freundschafts Walzer
TTITLE6=Eisenkeller Musig - Mohrenwirt Polka
TTITLE7=Klarinettenmusi Karl Edelmann - Klarinettenhalbwalzer in F
TTITLE8=Greilinger Sänger - Bei da Gurkn
TTITLE9=Kreuther Trio - Steirische Landler in A
TTITLE10=Kirchleit'n Soat'nmusi - Für d' Birgit
TTITLE11=Wetterstoa Musikanten - Unter Liacht'n
TTITLE12=Tiroler Kirchtagmusig - Gamssteig Boarischer
TTITLE13=Stoaberg Musi - Polka in As
TTITLE14=Tanzlmusi Karl Edelmann - A böhmisch Polkal
TTITLE15=Röpfl Mannerg'sang - A Lüfterl a kalt's
TTITLE16=Vilsleit'nmusi - Schiabt's oh
TTITLE17=Die Unterlandler - Walderalm Tanzl
TTITLE18=Hinterleit'n Musi - Steirischer Liedermarsch
TTITLE19=Wetterstoa Musikanten - Gamseck Landler
TTITLE20=Stoaberg Musi - 's Bachstelzerl
TTITLE21=Eisenkeller Musig - Birken Walzer
EXTD=
EXTT0=
EXTT1=
EXTT2=
EXTT3=
EXTT4=
EXTT5=
EXTT6=
EXTT7=
EXTT8=
EXTT9=
EXTT10=
EXTT11=
EXTT12=
EXTT13=
EXTT14=
EXTT15=
EXTT16=
EXTT17=
EXTT18=
EXTT19=
EXTT20=
EXTT21=
PLAYORDER=
